<mxfile host="app.diagrams.net" modified="2024-06-23T13:28:25.838Z" agent="Mozilla/5.0 (Windows NT 10.0; Win64; x64) AppleWebKit/537.36 (KHTML, like Gecko) Chrome/118.0.0.0 Safari/537.36" version="24.5.4" etag="4TKhwRT-Ud1J66mBYRwD" type="github">
  <diagram name="PÃ¡gina-1" id="HT5Vm9ClRpb3uKVNik20">
    <mxGraphModel>
      <root>
        <mxCell id="0" />
        <mxCell id="1" parent="0" />
      </root>
    </mxGraphModel>
  </diagram>
</mxfile>
